<svg xmlns:xlink="http://www.w3.org/1999/xlink" xmlns="http://www.w3.org/2000/svg" width="24" height="24" viewBox="0 0 24 24" fill="none"><path fill-rule="evenodd" clip-rule="evenodd" d="M12.0001 2.95508C7.00466 2.95508 2.95508 7.00466 2.95508 12.0001C2.95508 16.9955 7.00466 21.0451 12.0001 21.0451C16.9955 21.0451 21.0451 16.9955 21.0451 12.0001C21.0451 7.00466 16.9955 2.95508 12.0001 2.95508ZM1.45508 12.0001C1.45508 6.17624 6.17624 1.45508 12.0001 1.45508C17.8239 1.45508 22.5451 6.17624 22.5451 12.0001C22.5451 17.8239 17.8239 22.5451 12.0001 22.5451C6.17624 22.5451 1.45508 17.8239 1.45508 12.0001Z" fill="#2A5BD7"/><path fill-rule="evenodd" clip-rule="evenodd" d="M16.5697 7.14751C16.9301 7.35167 17.0568 7.80934 16.8526 8.16974L12.443 15.9541C12.1615 16.4517 11.6707 16.874 11.033 16.932C10.3872 16.9907 9.84608 16.6582 9.49443 16.2186L9.48165 16.2026L7.20187 13.1875C6.95203 12.8571 7.01732 12.3867 7.3477 12.1369C7.67808 11.887 8.14845 11.9523 8.39829 12.2827L10.6711 15.2882C10.7319 15.3626 10.7867 15.4018 10.8242 15.4205C10.8598 15.4383 10.8821 15.4395 10.8972 15.4382C10.9191 15.4362 11.0286 15.4082 11.1372 15.216L15.5475 7.43041C15.7517 7.07001 16.2093 6.94335 16.5697 7.14751Z" fill="#2A5BD7"/></svg>